Format : MPEG-4 
Format profile : Base Media / Version 2 
Codec ID : mp42 
File size : 38.8 MiB 
Duration : 4mn 24s 
Overall bit rate mode : Variable 
Overall bit rate : 1 232 Kbps 
Encoded date : UTC 2011-06-22 23:39:56 
Tagged date : UTC 2011-06-22 23:39:56 
gsst : 0 
gstd : 264458 
gssd : BBE3A8885HH1322940207751546 
gshh :

Video 
ID : 1 
Format : AVC 
Format/Info : Advanced Video Codec 
Format profile : High@L3.1 
Format settings, CABAC : Yes 
Format settings, ReFrames : 1 frame 
Codec ID : avc1 
Codec ID/Info : Advanced Video Coding 
Duration : 4mn 24s 
Bit rate : 1 074 Kbps 
Maximum bit rate : 2 825 Kbps 
Width : 1 280 pixels 
Height : 720 pixels 
Display aspect ratio : 16:9 
Frame rate mode : Variable 
Frame rate : 23.976 fps 
Minimum frame rate : 17.241 fps 
Maximum frame rate : 24.390 fps 
Color space : YUV 
Chroma subsampling : 4:2:0 
Bit depth : 8 bits 
Scan type : Progressive 
Bits/(Pixel*Frame) : 0.049 
Stream size : 33.9 MiB (87%) 
Tagged date : UTC 2011-06-22 23:39:58 

Audio 
ID : 2 
Format : AAC 
Format/Info : Advanced Audio Codec 
Format profile : LC 
Codec ID : 40 
Duration : 4mn 24s 
Bit rate mode : Variable 
Bit rate : 152 Kbps 
Maximum bit rate : 182 Kbps 
Channel(s) : 2 channels 
Channel positions : Front: L R 
Sampling rate : 44.1 KHz 
Compression mode : Lossy 
Stream size : 4.79 MiB (12%) 
